{"glyphs":{":":{"x_min":0,"x_max":618,"ha":618,"o":"m 268 218 l 350 218 q 369 218 380 205 q 392 192 392 172 l 392 110 q 392 88 381 76 q 369 63 350 63 l 268 63 q 250 63 238 76 q 226 89 226 110 l 226 172 q 226 193 238 206 q 249 218 268 218 z m 268 500 l 350 500 q 368 500 380 487 q 392 474 392 453 l 392 392 q 392 371 381 358 q 369 345 350 345 l 268 345 q 250 345 238 358 q 226 372 226 392 l 226 453 q 226 475 238 487 q 249 500 268 500 z"},"$":{"x_min":0,"x_max":618,"ha":618,"o":"m 351 559 l 351 465 l 469 465 q 490 465 503 453 q 516 441 516 423 q 516 405 503 393 q 490 381 469 381 l 186 381 l 186 324 l 474 324 q 492 324 504 311 q 516 298 516 277 l 516 146 q 516 125 505 112 q 493 99 474 99 l 351 99 l 351 5 q 351 -16 339 -29 q 328 -42 309 -42 q 291 -42 279 -29 q 267 -16 267 5 l 267 99 l 149 99 q 127 99 115 111 q 102 122 102 141 q 102 159 115 171 q 128 183 149 183 l 432 183 l 432 240 l 144 240 q 125 240 114 253 q 102 267 102 287 l 102 418 q 102 439 114 452 q 125 465 144 465 l 267 465 l 267 559 q 267 581 279 593 q 290 606 309 606 q 327 606 339 593 q 351 580 351 559 z"},"?":{"x_min":0,"x_max":618,"ha":618,"o":"m 226 42 q 244 42 256 30 q 268 18 268 0 q 268 -18 256 -30 q 243 -42 226 -42 q 209 -42 197 -29 q 185 -17 185 0 q 185 17 197 30 q 208 42 226 42 z m 438 581 l 481 544 l 481 543 q 516 514 516 489 l 516 428 q 516 415 512 406 q 509 398 495 386 l 269 193 l 269 146 q 269 125 257 112 q 246 99 227 99 q 208 99 197 112 q 185 125 185 146 l 185 207 q 185 220 188 228 q 192 236 206 248 l 432 441 l 432 476 l 392 509 l 175 324 q 167 317 158 314 q 150 311 141 311 q 126 311 114 323 q 102 335 102 351 q 102 361 107 371 q 111 380 120 387 l 361 593 q 369 601 376 603 q 383 606 391 606 q 400 606 409 602 q 418 597 438 581 z"},"<":{"x_min":0,"x_max":618,"ha":618,"o":"m 449 37 l 127 226 q 115 233 109 244 q 102 254 102 265 l 102 299 q 102 311 109 321 q 115 332 127 338 l 449 527 q 458 532 463 533 q 468 535 473 535 q 491 535 503 523 q 516 511 516 494 q 516 482 510 472 q 503 461 491 455 l 195 283 l 491 109 q 503 102 510 91 q 516 81 516 70 q 516 52 504 41 q 491 29 473 29 q 468 29 463 31 q 458 32 449 37 z"},"'":{"x_min":0,"x_max":618,"ha":618,"o":"m 391 552 l 350 346 q 347 330 336 320 q 325 310 309 310 q 293 310 282 320 q 271 330 268 346 l 228 552 q 228 554 227 557 q 227 559 227 564 q 227 586 240 596 q 253 606 281 606 l 337 606 q 366 606 379 595 q 392 585 392 562 q 392 559 392 556 q 392 554 391 552 z"},"=":{"x_min":0,"x_max":618,"ha":618,"o":"m 149 430 l 469 430 q 490 430 503 418 q 516 406 516 387 q 516 369 503 357 q 490 345 469 345 l 149 345 q 127 345 115 357 q 102 368 102 387 q 102 406 115 418 q 128 430 149 430 z m 149 253 l 469 253 q 490 253 503 241 q 516 229 516 211 q 516 193 503 181 q 490 169 469 169 l 149 169 q 127 169 115 180 q 102 192 102 211 q 102 229 115 241 q 128 253 149 253 z"},"a":{"x_min":0,"x_max":618,"ha":618,"o":"m 226 170 q 210 170 198 158 q 186 146 186 129 l 186 82 q 186 66 198 54 q 210 42 227 42 l 339 42 l 429 93 l 428 130 q 428 147 416 158 q 404 170 387 170 z m 231 430 l 380 430 q 431 430 467 395 q 503 360 505 306 l 516 6 l 516 4 q 516 -16 504 -29 q 492 -42 475 -42 q 458 -42 446 -31 q 435 -20 432 0 l 383 -31 q 375 -36 365 -39 q 354 -42 346 -42 l 227 -42 q 175 -42 139 -6 q 102 31 102 82 l 102 129 q 102 180 139 217 q 176 254 227 254 l 387 254 q 397 254 406 252 q 416 250 424 247 l 421 306 q 420 324 409 335 q 397 346 380 346 l 231 346 q 210 346 198 357 q 186 369 186 388 q 186 407 198 418 q 211 430 231 430 z"},"L":{"x_min":0,"x_max":618,"ha":618,"o":"m 186 559 l 186 42 l 469 42 q 490 42 503 30 q 516 19 516 0 q 516 -19 503 -30 q 490 -42 469 -42 l 102 -42 l 102 559 q 102 581 114 593 q 125 606 144 606 q 162 606 174 593 q 186 580 186 559 z"},"3":{"x_min":0,"x_max":618,"ha":618,"o":"m 149 606 l 432 606 q 466 606 491 581 q 516 557 516 522 l 516 366 q 516 344 508 324 q 500 303 485 283 q 500 262 508 240 q 516 218 516 197 l 516 42 q 516 7 491 -17 q 467 -42 432 -42 l 149 -42 q 128 -42 115 -30 q 102 -19 102 0 q 102 19 115 30 q 128 42 149 42 l 431 42 l 431 198 q 431 215 419 228 q 406 240 389 240 l 231 240 q 209 240 197 251 q 185 263 185 282 q 185 300 198 312 q 210 324 231 324 l 389 324 q 406 324 419 337 q 431 349 431 366 l 431 522 l 149 522 q 127 522 115 533 q 102 545 102 564 q 102 583 115 594 q 128 606 149 606 z"},";":{"x_min":0,"x_max":618,"ha":618,"o":"m 231 253 l 391 253 q 410 253 421 240 q 433 228 433 207 l 433 5 q 433 -16 421 -29 q 410 -42 391 -42 q 373 -42 361 -29 q 349 -16 349 5 l 349 169 l 231 169 q 209 169 197 180 q 185 192 185 211 q 185 229 198 241 q 210 253 231 253 z m 268 500 l 350 500 q 368 500 380 487 q 392 474 392 453 l 392 392 q 392 371 381 358 q 369 345 350 345 l 268 345 q 250 345 238 358 q 226 372 226 392 l 226 453 q 226 475 238 487 q 249 500 268 500 z"},"J":{"x_min":0,"x_max":618,"ha":618,"o":"m 475 559 l 475 84 q 475 32 438 -5 q 400 -42 348 -42 l 270 -42 q 217 -42 180 -5 q 143 32 143 84 l 143 207 q 143 229 155 241 q 166 253 185 253 q 204 253 216 240 q 228 227 228 207 l 228 84 q 228 66 240 54 q 253 42 270 42 l 348 42 q 365 42 378 55 q 391 67 391 84 l 391 559 q 391 581 403 593 q 414 606 433 606 q 451 606 463 593 q 475 580 475 559 z"},"V":{"x_min":0,"x_max":618,"ha":618,"o":"m 186 559 l 186 432 l 309 109 l 432 432 l 432 559 q 432 580 444 593 q 456 606 474 606 q 493 606 504 593 q 516 580 516 559 l 516 416 l 351 -6 q 343 -27 334 -34 q 324 -42 309 -42 q 293 -42 283 -34 q 273 -25 266 -6 l 102 416 l 102 559 q 102 581 114 593 q 125 606 144 606 q 162 606 174 593 q 186 580 186 559 z"},"\"":{"x_min":0,"x_max":618,"ha":618,"o":"m 516 557 l 479 357 q 475 335 463 323 q 450 310 433 310 q 415 310 404 321 q 394 332 389 357 l 357 522 l 261 522 l 229 357 q 224 333 214 321 q 203 310 185 310 q 168 310 156 323 q 144 335 140 357 l 102 557 l 102 606 l 516 606 z"},"7":{"x_min":0,"x_max":618,"ha":618,"o":"m 144 606 l 516 606 l 516 355 q 516 342 513 334 q 509 326 495 314 l 351 191 l 351 5 q 351 -16 339 -29 q 328 -42 309 -42 q 291 -42 279 -29 q 267 -16 267 5 l 267 207 q 267 220 271 228 q 274 236 288 248 l 432 370 l 432 522 l 186 522 q 182 505 171 496 q 160 487 144 487 q 125 487 114 500 q 102 513 102 533 l 102 559 q 102 581 114 593 q 125 606 144 606 z"},"S":{"x_min":0,"x_max":618,"ha":618,"o":"m 196 606 l 403 606 q 448 606 482 573 q 516 540 516 498 q 516 477 504 464 q 493 451 474 451 q 456 451 446 461 q 437 470 430 501 q 429 509 420 515 q 412 522 403 522 l 196 522 q 192 522 189 519 q 186 516 186 512 q 186 511 187 509 q 188 507 189 505 l 490 118 q 503 101 510 84 q 516 68 516 52 q 516 13 489 -14 q 461 -42 422 -42 l 215 -42 q 170 -42 136 -9 q 102 24 102 66 q 102 87 114 100 q 125 113 144 113 q 162 113 171 103 q 181 94 188 63 q 189 55 198 49 q 206 42 215 42 l 422 42 q 426 42 429 45 q 432 48 432 52 q 432 53 431 55 q 431 57 429 59 l 128 446 q 115 463 108 479 q 102 496 102 512 q 102 551 130 578 q 157 606 196 606 z"},"}":{"x_min":0,"x_max":618,"ha":618,"o":"m 149 522 q 128 522 115 534 q 102 546 102 564 q 102 583 115 594 q 128 606 149 606 l 267 606 q 301 606 326 581 q 351 556 351 522 l 351 366 q 351 349 363 337 q 375 324 393 324 l 469 324 q 490 324 503 312 q 516 300 516 282 q 516 263 503 252 q 490 240 469 240 l 393 240 q 376 240 364 228 q 351 215 351 198 l 351 42 q 351 8 326 -17 q 301 -42 267 -42 l 149 -42 q 128 -42 115 -30 q 102 -19 102 0 q 102 19 115 30 q 128 42 149 42 l 267 42 l 267 197 q 267 219 275 240 q 283 261 299 282 q 283 303 275 323 q 267 344 267 366 l 267 522 z"},"Z":{"x_min":0,"x_max":618,"ha":618,"o":"m 149 606 l 516 606 l 516 551 l 219 42 l 469 42 q 490 42 503 30 q 516 19 516 0 q 516 -19 503 -30 q 490 -42 469 -42 l 102 -42 l 102 13 l 401 522 l 149 522 q 127 522 115 533 q 102 545 102 564 q 102 583 115 594 q 128 606 149 606 z"},"x":{"x_min":0,"x_max":618,"ha":618,"o":"m 188 412 l 310 265 l 429 412 q 436 421 446 426 q 455 430 465 430 q 482 430 494 418 q 506 406 506 389 q 506 381 503 373 q 500 366 494 358 l 364 200 l 503 30 q 509 23 512 16 q 515 9 515 0 q 515 -17 503 -29 q 491 -41 474 -41 q 464 -41 455 -36 q 445 -31 438 -23 l 309 134 l 179 -23 q 171 -32 162 -37 q 153 -41 143 -41 q 125 -41 114 -30 q 102 -18 102 -1 q 102 7 105 15 q 108 23 114 30 l 255 199 l 123 358 q 117 366 114 374 q 111 382 111 392 q 111 406 123 418 q 136 430 151 430 q 162 430 171 426 q 181 421 188 412 z"},")":{"x_min":0,"x_max":618,"ha":618,"o":"m 263 585 l 346 478 q 370 447 381 418 q 392 390 392 359 l 392 205 q 392 174 381 145 q 370 116 346 85 l 263 -22 q 256 -31 246 -36 q 237 -41 226 -41 q 209 -41 197 -29 q 185 -17 185 0 q 185 6 188 14 q 191 22 197 29 l 286 145 q 296 158 302 174 q 308 190 308 205 l 308 359 q 308 374 302 390 q 296 406 286 419 l 197 534 q 191 541 188 549 q 185 557 185 563 q 185 580 197 593 q 209 605 226 605 q 236 605 246 600 q 255 595 263 585 z"},"&":{"x_min":0,"x_max":618,"ha":618,"o":"m 252 178 l 186 123 l 186 84 q 186 66 198 54 q 211 42 228 42 l 294 42 l 342 83 z m 229 451 q 212 451 199 439 q 186 426 186 409 l 186 369 l 257 293 l 349 371 l 349 409 q 349 426 336 439 q 324 451 307 451 z m 228 536 l 307 536 q 359 536 396 499 q 433 462 433 409 l 433 360 q 433 346 429 337 q 425 327 415 318 l 316 232 l 406 138 l 443 170 q 452 177 459 180 q 467 183 475 183 q 491 183 504 171 q 516 158 516 142 q 516 132 511 123 q 507 114 498 107 l 462 77 l 501 32 q 509 22 513 15 q 516 8 516 -1 q 516 -18 504 -30 q 492 -42 475 -42 q 466 -42 457 -38 q 447 -33 440 -25 l 399 21 l 325 -42 l 229 -42 q 176 -42 139 -5 q 102 32 102 84 l 102 134 q 102 148 106 158 q 110 168 120 176 l 195 238 l 117 321 q 109 330 105 339 q 102 348 102 365 l 102 409 q 102 461 139 499 q 176 536 228 536 z"},"v":{"x_min":0,"x_max":618,"ha":618,"o":"m 186 384 l 186 329 l 309 48 l 432 329 l 432 384 q 432 404 444 417 q 456 430 474 430 q 493 430 504 417 q 516 405 516 384 l 516 322 q 516 315 515 310 q 513 304 510 297 l 378 -6 q 369 -27 359 -34 q 349 -42 335 -42 l 283 -42 q 269 -42 259 -35 q 250 -27 240 -6 l 108 297 q 104 304 103 310 q 102 315 102 322 l 102 384 q 102 405 114 418 q 125 430 144 430 q 163 430 174 417 q 186 404 186 384 z"},"O":{"x_min":0,"x_max":618,"ha":618,"o":"m 331 506 q 326 515 321 519 q 316 522 309 522 q 302 522 296 518 q 290 513 286 506 l 196 329 q 191 320 189 307 q 186 294 186 282 q 186 270 189 257 q 191 244 196 235 l 287 58 q 292 49 297 45 q 302 42 309 42 q 316 42 322 46 q 329 50 332 58 l 422 235 q 426 244 429 257 q 432 270 432 282 q 432 295 429 308 q 426 321 422 329 z m 411 535 l 498 364 q 506 348 511 326 q 516 305 516 282 q 516 259 511 238 q 506 216 498 200 l 411 29 q 391 -10 367 -26 q 344 -42 309 -42 q 274 -42 250 -26 q 227 -10 207 29 l 120 200 q 111 217 107 239 q 102 260 102 282 q 102 305 107 326 q 111 348 120 364 l 207 535 q 227 574 250 590 q 274 606 309 606 q 344 606 367 590 q 391 574 411 535 z"},"(":{"x_min":0,"x_max":618,"ha":618,"o":"m 422 534 l 332 419 q 322 406 316 390 q 310 374 310 359 l 310 205 q 310 191 316 175 q 322 159 332 145 l 422 29 q 427 22 430 15 q 433 7 433 0 q 433 -17 421 -29 q 409 -41 392 -41 q 381 -41 372 -36 q 362 -31 355 -22 l 272 85 q 248 116 237 145 q 226 174 226 205 l 226 359 q 226 390 237 418 q 248 447 272 478 l 355 585 q 363 595 372 600 q 381 605 392 605 q 409 605 421 593 q 433 580 433 563 q 433 556 430 548 q 427 541 422 534 z"},"C":{"x_min":0,"x_max":618,"ha":618,"o":"m 321 -42 q 282 -42 253 -23 q 225 -4 204 37 l 117 210 q 109 225 106 243 q 102 260 102 281 q 102 302 106 321 q 109 339 117 354 l 204 527 q 224 567 252 587 q 281 606 321 606 l 469 606 q 490 606 503 594 q 516 583 516 564 q 516 546 503 534 q 490 522 469 522 l 321 522 q 309 522 298 515 q 287 508 281 496 l 195 322 q 191 313 189 303 q 187 293 187 282 q 187 271 189 261 q 191 251 195 242 l 281 69 q 287 57 298 49 q 309 42 321 42 l 469 42 q 490 42 503 30 q 516 19 516 0 q 516 -19 503 -30 q 490 -42 469 -42 z"},"W":{"x_min":0,"x_max":618,"ha":618,"o":"m 186 559 l 186 81 l 210 42 l 245 42 l 267 81 l 267 348 q 267 369 279 382 q 290 394 309 394 q 328 394 339 381 q 351 369 351 348 l 351 81 l 373 42 l 408 42 l 432 81 l 432 559 q 432 580 444 593 q 456 606 474 606 q 493 606 504 593 q 516 580 516 559 l 516 74 q 516 66 514 60 q 513 53 510 49 l 479 -6 q 469 -24 457 -33 q 446 -42 432 -42 l 351 -42 q 333 -42 321 -29 q 309 -17 309 3 l 309 5 l 309 3 q 309 -17 297 -29 q 285 -42 267 -42 l 186 -42 q 172 -42 161 -33 q 150 -25 140 -6 l 108 49 q 105 54 104 60 q 102 66 102 74 l 102 559 q 102 581 114 593 q 125 606 144 606 q 162 606 174 593 q 186 580 186 559 z"},"A":{"x_min":0,"x_max":618,"ha":618,"o":"m 309 414 l 241 183 l 376 183 z m 354 559 l 512 16 q 514 11 514 7 q 515 2 515 -1 q 515 -18 503 -30 q 491 -42 474 -42 q 459 -42 448 -32 q 437 -23 432 -7 l 401 99 l 218 99 l 186 -7 q 180 -25 170 -33 q 159 -42 143 -42 q 127 -42 115 -30 q 103 -18 103 -2 q 103 5 104 9 q 104 13 105 16 l 263 559 q 271 585 281 596 q 292 606 309 606 q 326 606 336 596 q 347 586 354 559 z"},"f":{"x_min":0,"x_max":618,"ha":618,"o":"m 351 606 l 448 606 q 469 606 482 594 q 495 583 495 564 q 495 546 482 534 q 469 522 448 522 l 351 522 q 326 522 307 503 q 288 484 288 459 l 288 430 l 366 430 q 387 430 400 418 q 413 407 413 388 q 413 370 400 358 q 387 346 366 346 l 288 346 l 288 5 q 288 -16 276 -29 q 265 -42 246 -42 q 228 -42 216 -29 q 204 -16 204 5 l 204 346 l 169 346 q 147 346 135 358 q 122 369 122 388 q 122 406 135 418 q 148 430 169 430 l 204 430 l 204 459 q 204 520 248 563 q 291 606 351 606 z"},"Q":{"x_min":0,"x_max":618,"ha":618,"o":"m 516 504 l 516 267 q 516 233 502 200 q 487 166 466 148 l 401 92 l 421 42 l 469 42 q 490 42 503 30 q 516 19 516 0 q 516 -19 503 -30 q 490 -42 469 -42 l 364 -42 l 334 34 l 278 -12 q 261 -27 242 -34 q 223 -42 204 -42 q 162 -42 132 -12 q 102 18 102 60 l 102 295 q 102 329 116 363 q 131 397 152 415 l 343 576 q 361 592 378 599 q 395 606 414 606 q 456 606 486 576 q 516 546 516 504 z m 432 504 q 432 511 427 517 q 421 522 414 522 q 411 522 408 521 q 405 519 402 516 l 211 355 q 200 346 193 329 q 186 312 186 295 l 186 60 q 186 53 191 47 q 197 42 204 42 q 207 42 210 44 q 213 45 216 48 l 301 118 l 272 193 q 269 200 268 204 q 267 207 267 210 q 267 229 279 241 q 292 253 309 253 q 323 253 334 245 q 345 237 350 223 l 368 175 l 407 207 q 417 216 425 233 q 432 250 432 267 z"},"w":{"x_min":0,"x_max":618,"ha":618,"o":"m 178 385 l 185 146 l 213 56 l 267 152 l 267 243 q 267 264 279 276 q 291 289 309 289 q 327 289 339 276 q 351 263 351 243 l 351 152 l 404 56 l 432 146 l 440 385 q 441 406 452 418 q 464 430 483 430 q 500 430 512 417 q 524 404 524 385 l 524 383 l 516 135 l 473 -8 q 468 -26 456 -34 q 443 -42 421 -42 l 388 -42 q 376 -42 367 -36 q 358 -30 351 -17 l 309 54 l 267 -17 q 260 -29 250 -36 q 241 -42 229 -42 l 197 -42 q 175 -42 162 -34 q 150 -26 145 -8 l 102 135 l 94 383 l 94 385 q 94 405 105 417 q 117 430 134 430 q 153 430 165 418 q 177 405 178 385 z"},"-":{"x_min":0,"x_max":618,"ha":618,"o":"m 149 324 l 469 324 q 490 324 503 312 q 516 301 516 282 l 516 247 q 516 229 503 216 q 489 204 469 204 l 149 204 q 128 204 115 216 q 102 228 102 247 l 102 282 q 102 300 115 312 q 128 324 149 324 z"},"E":{"x_min":0,"x_max":618,"ha":618,"o":"m 102 606 l 469 606 q 490 606 503 594 q 516 583 516 564 q 516 546 503 534 q 490 522 469 522 l 186 522 l 186 324 l 305 324 q 326 324 338 312 q 351 301 351 282 q 351 264 338 252 q 326 240 305 240 l 186 240 l 186 42 l 469 42 q 490 42 503 30 q 516 19 516 0 q 516 -19 503 -30 q 490 -42 469 -42 l 102 -42 z"},"s":{"x_min":0,"x_max":618,"ha":618,"o":"m 219 430 l 397 430 q 438 430 472 405 q 506 379 506 353 q 506 335 493 323 q 481 311 464 311 q 448 311 430 329 q 413 346 396 346 l 219 346 q 208 346 202 339 q 195 332 195 320 q 195 314 199 309 q 204 303 210 300 l 437 203 q 473 187 494 156 q 515 124 515 85 q 515 33 478 -5 q 440 -42 388 -42 l 223 -42 q 179 -42 141 -16 q 102 9 102 35 q 102 52 114 64 q 126 77 143 77 q 157 77 180 60 q 204 42 223 42 l 388 42 q 405 42 418 55 q 431 67 431 85 q 431 98 424 109 q 417 120 404 125 l 178 223 q 147 236 129 263 q 111 290 111 322 q 111 367 143 398 q 174 430 219 430 z"},">":{"x_min":0,"x_max":618,"ha":618,"o":"m 169 527 l 491 338 q 503 332 510 321 q 516 311 516 299 l 516 265 q 516 253 510 243 q 503 232 491 226 l 169 37 q 161 33 156 31 q 150 29 145 29 q 127 29 115 41 q 102 53 102 70 q 102 82 109 92 q 115 103 127 109 l 423 281 l 127 455 q 115 463 108 473 q 102 482 102 494 q 102 511 115 523 q 127 535 145 535 q 150 535 156 533 q 162 531 169 527 z"},"l":{"x_min":0,"x_max":618,"ha":618,"o":"m 190 606 l 304 606 q 325 606 338 594 q 351 583 351 564 l 351 42 l 428 42 q 449 42 461 31 q 474 19 474 0 q 474 -19 461 -30 q 448 -42 428 -42 l 190 -42 q 169 -42 156 -30 q 143 -19 143 0 q 143 19 156 30 q 169 42 190 42 l 266 42 l 266 522 l 190 522 q 168 522 156 533 q 143 545 143 564 q 143 583 156 594 q 169 606 190 606 z"},"8":{"x_min":0,"x_max":618,"ha":618,"o":"m 186 240 l 186 42 l 432 42 l 432 240 z m 269 522 l 269 324 l 349 324 l 349 522 z m 227 606 l 391 606 q 409 606 421 593 q 433 580 433 559 l 433 324 q 474 320 495 297 q 516 273 516 231 l 516 51 q 516 6 492 -18 q 468 -42 423 -42 l 195 -42 q 150 -42 126 -18 q 102 6 102 51 l 102 231 q 102 273 123 297 q 145 321 185 324 l 185 559 q 185 581 197 593 q 208 606 227 606 z"},"\\":{"x_min":0,"x_max":618,"ha":618,"o":"m 110 540 q 106 546 104 552 q 102 559 102 564 q 102 582 114 594 q 126 606 144 606 q 156 606 166 600 q 175 594 183 582 l 508 25 q 512 19 514 12 q 516 5 516 0 q 516 -18 504 -30 q 491 -42 474 -42 q 462 -42 453 -36 q 443 -29 435 -17 z"},"e":{"x_min":0,"x_max":618,"ha":618,"o":"m 263 347 q 257 347 250 344 q 244 342 237 337 l 201 307 q 194 302 190 293 q 186 285 186 276 l 186 219 l 432 219 l 432 276 q 432 285 428 293 q 424 302 417 307 l 381 337 q 375 342 368 344 q 361 347 355 347 z m 262 430 l 355 430 q 376 430 397 423 q 417 415 435 401 l 471 372 q 492 355 504 329 q 516 303 516 276 l 516 176 q 516 158 503 146 q 490 134 469 134 l 186 134 l 186 112 q 186 103 190 95 q 194 86 201 81 l 237 51 q 243 46 249 44 q 255 42 263 42 l 469 42 q 490 42 503 30 q 516 19 516 0 q 516 -19 503 -30 q 490 -42 469 -42 l 262 -42 q 241 -42 221 -35 q 201 -27 183 -13 l 147 17 q 126 34 114 60 q 102 85 102 112 l 102 276 q 102 303 114 329 q 126 355 147 372 l 183 401 q 201 416 221 423 q 241 430 262 430 z"},"b":{"x_min":0,"x_max":618,"ha":618,"o":"m 297 346 q 289 346 282 343 q 275 340 268 334 l 197 277 q 192 273 189 265 q 186 257 186 248 l 186 141 q 186 131 189 124 q 192 116 197 112 l 268 54 q 275 48 283 45 q 290 42 297 42 l 362 42 q 369 42 375 44 q 382 47 391 54 l 419 76 q 424 80 427 88 q 431 97 431 105 l 431 284 q 431 292 427 300 q 424 308 419 312 l 391 334 q 383 341 376 344 q 370 346 362 346 z m 186 559 l 186 374 l 217 401 q 233 415 254 422 q 275 430 297 430 l 362 430 q 384 430 405 423 q 425 416 443 401 l 471 379 q 490 364 503 338 q 516 312 516 287 l 516 105 q 516 79 503 52 q 491 25 471 9 l 443 -13 q 425 -27 405 -35 q 384 -42 362 -42 l 297 -42 q 275 -42 254 -34 q 233 -27 217 -13 l 186 14 l 186 5 q 186 -16 174 -29 q 163 -42 144 -42 q 125 -42 114 -29 q 102 -16 102 5 l 102 559 q 102 581 114 593 q 125 606 144 606 q 162 606 174 593 q 186 580 186 559 z"},"%":{"x_min":0,"x_max":618,"ha":618,"o":"m 392 113 l 474 113 q 492 113 504 100 q 516 86 516 66 l 516 5 q 516 -16 504 -29 q 493 -42 474 -42 l 392 -42 q 374 -42 362 -29 q 350 -16 350 5 l 350 66 q 350 87 362 100 q 373 113 392 113 z m 504 465 l 180 48 q 172 38 164 33 q 155 29 144 29 q 126 29 114 41 q 102 53 102 70 q 102 77 105 85 q 108 92 114 100 l 438 516 q 446 526 455 531 q 464 536 474 536 q 491 536 503 524 q 516 512 516 495 q 516 488 513 480 q 510 473 504 465 z m 144 606 l 226 606 q 244 606 256 593 q 268 580 268 559 l 268 498 q 268 477 257 464 q 245 451 226 451 l 144 451 q 125 451 114 464 q 102 478 102 498 l 102 559 q 102 581 114 593 q 125 606 144 606 z"},"m":{"x_min":0,"x_max":618,"ha":618,"o":"m 514 334 l 525 6 l 525 4 q 525 -16 513 -29 q 501 -42 484 -42 q 465 -42 454 -30 q 442 -18 441 3 l 430 330 q 430 337 426 342 q 421 346 414 346 q 411 346 408 345 q 405 344 403 342 l 351 297 l 351 5 q 351 -16 339 -29 q 328 -42 309 -42 q 291 -42 279 -29 q 267 -16 267 5 l 267 328 q 267 335 261 341 q 255 346 248 346 q 245 346 241 345 q 238 343 236 341 l 177 293 l 177 5 q 177 -16 165 -29 q 154 -42 135 -42 q 117 -42 105 -29 q 93 -16 93 5 l 93 384 q 93 405 104 418 q 116 430 135 430 q 149 430 159 422 q 169 415 175 399 l 189 410 q 203 420 217 425 q 230 430 248 430 q 272 430 292 421 q 312 411 331 391 l 341 399 q 363 417 378 424 q 394 430 411 430 q 455 430 483 403 q 512 375 514 334 z"},"#":{"x_min":0,"x_max":618,"ha":618,"o":"m 269 381 l 269 289 l 349 289 l 349 381 z m 469 465 q 490 465 503 453 q 516 441 516 423 q 516 405 503 393 q 490 381 469 381 l 433 381 l 433 289 l 469 289 q 490 289 503 277 q 516 266 516 247 q 516 229 503 216 q 489 204 469 204 l 433 204 l 433 110 q 433 89 421 76 q 410 64 391 64 q 373 64 361 77 q 349 89 349 110 l 349 204 l 269 204 l 269 110 q 269 89 257 76 q 246 64 227 64 q 208 64 197 77 q 185 89 185 110 l 185 204 l 149 204 q 128 204 115 216 q 102 228 102 247 q 102 265 115 277 q 128 289 149 289 l 185 289 l 185 381 l 149 381 q 127 381 115 393 q 102 404 102 423 q 102 441 115 453 q 128 465 149 465 l 185 465 l 185 559 q 185 581 197 593 q 208 606 227 606 q 245 606 257 593 q 269 580 269 559 l 269 465 l 349 465 l 349 559 q 349 581 361 593 q 372 606 391 606 q 409 606 421 593 q 433 580 433 559 l 433 465 z"},",":{"x_min":0,"x_max":618,"ha":618,"o":"m 231 253 l 391 253 q 410 253 421 240 q 433 228 433 207 l 433 5 q 433 -16 421 -29 q 410 -42 391 -42 q 373 -42 361 -29 q 349 -16 349 5 l 349 169 l 231 169 q 209 169 197 180 q 185 192 185 211 q 185 229 198 241 q 210 253 231 253 z"},"n":{"x_min":0,"x_max":618,"ha":618,"o":"m 186 383 l 186 357 l 235 390 l 238 392 q 292 430 339 430 l 377 430 q 441 430 473 392 q 504 353 507 273 l 516 5 l 516 3 q 516 -17 504 -29 q 492 -42 474 -42 q 456 -42 444 -30 q 433 -17 432 5 l 422 276 q 420 312 407 328 q 395 345 369 345 l 342 345 q 319 345 286 324 l 283 322 l 186 258 l 186 5 q 186 -16 174 -29 q 163 -42 144 -42 q 125 -42 114 -29 q 102 -16 102 5 l 102 383 q 102 404 114 417 q 125 430 144 430 q 162 430 174 417 q 186 404 186 383 z"},"h":{"x_min":0,"x_max":618,"ha":618,"o":"m 186 559 l 186 361 l 247 401 q 249 402 252 404 q 290 430 327 430 l 380 430 q 431 430 467 395 q 503 360 505 306 l 515 6 l 515 4 q 515 -16 503 -29 q 492 -42 475 -42 q 456 -42 444 -30 q 432 -18 431 3 l 421 306 q 420 324 408 335 q 397 346 380 346 l 326 346 q 319 346 313 344 q 307 341 296 334 l 186 260 l 186 5 q 186 -16 174 -29 q 163 -42 144 -42 q 125 -42 114 -29 q 102 -16 102 5 l 102 559 q 102 581 114 593 q 125 606 144 606 q 162 606 174 593 q 186 580 186 559 z"},"z":{"x_min":0,"x_max":618,"ha":618,"o":"m 148 -42 q 126 -42 114 -31 q 102 -19 102 0 l 102 27 q 102 43 106 53 q 109 62 118 70 l 145 96 l 413 353 l 169 353 q 148 353 135 365 q 122 376 122 395 q 122 414 135 425 q 148 437 169 437 l 469 437 q 490 437 503 426 q 516 414 516 395 l 516 362 q 516 346 512 336 q 509 327 500 319 l 472 294 l 209 42 l 469 42 q 490 42 503 30 q 516 19 516 0 q 516 -19 503 -30 q 490 -42 469 -42 z"},"B":{"x_min":0,"x_max":618,"ha":618,"o":"m 186 240 l 186 42 l 347 42 q 382 42 407 67 q 432 91 432 126 l 432 156 q 432 190 407 215 q 382 240 347 240 z m 186 522 l 186 324 l 347 324 q 382 324 407 349 q 432 374 432 408 l 432 438 q 432 472 407 497 q 382 522 347 522 z m 102 606 l 347 606 q 416 606 466 556 q 516 506 516 438 l 516 409 q 516 372 500 337 q 484 302 458 282 q 486 256 501 224 q 516 191 516 156 l 516 127 q 516 58 466 8 q 417 -42 347 -42 l 102 -42 z"},"K":{"x_min":0,"x_max":618,"ha":618,"o":"m 186 559 l 186 373 l 443 593 q 451 600 458 603 q 465 606 474 606 q 491 606 504 594 q 516 582 516 566 q 516 556 511 546 q 507 537 498 530 l 208 282 l 498 34 q 506 26 511 17 q 516 7 516 -2 q 516 -18 504 -30 q 491 -42 474 -42 q 465 -42 458 -39 q 451 -36 443 -29 l 186 191 l 186 5 q 186 -16 174 -29 q 163 -42 144 -42 q 125 -42 114 -29 q 102 -16 102 5 l 102 559 q 102 581 114 593 q 125 606 144 606 q 162 606 174 593 q 186 580 186 559 z"},"R":{"x_min":0,"x_max":618,"ha":618,"o":"m 186 522 l 186 394 l 389 394 q 406 394 419 407 q 431 420 431 437 l 431 480 q 431 497 418 509 q 406 522 389 522 z m 102 606 l 389 606 q 441 606 479 569 q 516 532 516 480 l 516 437 q 516 385 479 347 q 442 310 389 310 l 344 310 l 508 25 q 512 18 514 12 q 516 6 516 1 q 516 -17 504 -29 q 492 -41 474 -41 q 462 -41 452 -35 q 441 -28 435 -17 l 246 310 l 186 310 l 186 5 q 186 -16 174 -29 q 163 -42 144 -42 q 125 -42 114 -29 q 102 -16 102 5 z"},"T":{"x_min":0,"x_max":618,"ha":618,"o":"m 102 606 l 516 606 l 516 498 q 516 477 504 464 q 493 451 474 451 q 456 451 444 464 q 432 478 432 498 l 432 522 l 351 522 l 351 5 q 351 -16 339 -29 q 328 -42 309 -42 q 291 -42 279 -29 q 267 -16 267 5 l 267 522 l 186 522 l 186 498 q 186 477 174 464 q 163 451 144 451 q 125 451 114 464 q 102 478 102 498 z"},"P":{"x_min":0,"x_max":618,"ha":618,"o":"m 186 522 l 186 289 l 389 289 q 406 289 419 302 q 431 314 431 331 l 431 480 q 431 497 419 509 q 406 522 389 522 z m 102 606 l 389 606 q 441 606 479 569 q 516 532 516 480 l 516 331 q 516 279 479 241 q 442 204 389 204 l 186 204 l 186 5 q 186 -16 174 -29 q 163 -42 144 -42 q 125 -42 114 -29 q 102 -16 102 5 z"},"|":{"x_min":0,"x_max":618,"ha":618,"o":"m 267 -126 l 267 880 l 351 880 l 351 -126 z"},"t":{"x_min":0,"x_max":618,"ha":618,"o":"m 269 525 l 269 430 l 428 430 q 449 430 462 418 q 475 407 475 388 q 475 370 462 358 q 449 346 428 346 l 269 346 l 269 82 q 269 65 281 53 q 292 42 309 42 l 392 42 q 405 42 416 50 q 426 57 431 71 q 432 73 434 78 q 445 113 474 113 q 491 113 503 101 q 515 89 515 73 q 515 30 478 -6 q 441 -42 391 -42 l 309 -42 q 257 -42 221 -5 q 184 32 184 83 l 184 346 l 149 346 q 127 346 115 358 q 102 369 102 388 q 102 406 115 418 q 128 430 149 430 l 184 430 l 184 525 q 184 546 196 559 q 207 571 226 571 q 245 571 257 558 q 269 545 269 525 z"},"M":{"x_min":0,"x_max":618,"ha":618,"o":"m 102 606 l 206 606 l 309 460 l 412 606 l 516 606 l 516 5 q 516 -16 504 -29 q 493 -42 474 -42 q 456 -42 444 -29 q 432 -16 432 5 l 432 487 l 351 375 l 351 357 q 351 336 339 323 q 328 310 309 310 q 291 310 279 323 q 267 336 267 357 l 267 375 l 186 487 l 186 5 q 186 -16 174 -29 q 163 -42 144 -42 q 125 -42 114 -29 q 102 -16 102 5 z"},"g":{"x_min":0,"x_max":618,"ha":618,"o":"m 431 384 q 431 405 443 417 q 454 430 473 430 q 492 430 504 417 q 516 404 516 384 l 516 -64 q 516 -91 504 -116 q 492 -142 471 -159 l 434 -189 q 416 -203 396 -210 q 376 -218 355 -218 l 191 -218 q 170 -218 157 -206 q 144 -194 144 -176 q 144 -157 157 -146 q 170 -134 191 -134 l 354 -134 q 363 -134 369 -132 q 375 -130 381 -125 l 417 -95 q 423 -90 427 -82 q 431 -74 431 -64 l 431 14 l 400 -13 q 384 -27 363 -34 q 342 -42 320 -42 l 255 -42 q 233 -42 213 -35 q 193 -28 175 -13 l 146 9 q 127 24 114 50 q 101 77 101 101 l 101 284 q 101 311 114 337 q 126 363 146 379 l 175 401 q 193 416 213 423 q 233 430 255 430 l 320 430 q 342 430 363 422 q 384 415 400 401 l 431 374 z m 432 140 l 432 247 q 432 255 428 264 q 425 272 420 276 l 349 334 q 342 340 334 343 q 327 346 320 346 l 255 346 q 247 346 240 344 q 233 341 226 334 l 198 312 q 193 308 189 300 q 186 292 186 283 l 186 104 q 186 96 189 88 q 193 80 198 76 l 226 54 l 227 53 q 241 42 255 42 l 320 42 q 328 42 335 45 q 342 48 349 54 l 420 111 q 425 115 428 124 q 432 132 432 140 z"},"j":{"x_min":0,"x_max":618,"ha":618,"o":"m 272 430 l 432 430 q 451 430 462 417 q 474 404 474 384 l 474 -84 q 474 -135 437 -172 q 400 -209 349 -209 l 267 -209 q 219 -209 181 -174 q 143 -139 143 -101 q 143 -85 155 -74 q 167 -64 184 -64 q 206 -64 225 -94 q 243 -125 267 -125 l 350 -125 q 366 -125 378 -113 q 390 -101 390 -84 l 390 346 l 272 346 q 250 346 238 358 q 225 369 225 388 q 225 406 238 418 q 251 430 272 430 z m 395 641 l 436 641 q 450 641 462 628 q 474 616 474 599 l 474 564 q 474 546 461 534 q 448 522 427 522 l 395 522 q 374 522 361 533 q 348 545 348 564 l 348 599 q 348 618 361 629 q 374 641 395 641 z"},"i":{"x_min":0,"x_max":618,"ha":618,"o":"m 190 430 l 304 430 q 325 430 338 418 q 351 407 351 388 l 351 42 l 428 42 q 449 42 461 31 q 474 19 474 0 q 474 -19 461 -30 q 448 -42 428 -42 l 190 -42 q 169 -42 156 -30 q 143 -19 143 0 q 143 19 156 30 q 169 42 190 42 l 266 42 l 266 346 l 190 346 q 168 346 156 358 q 143 369 143 388 q 143 406 156 418 q 169 430 190 430 z m 272 641 l 313 641 q 327 641 339 628 q 351 616 351 599 l 351 564 q 351 546 338 534 q 325 522 304 522 l 272 522 q 250 522 238 533 q 225 545 225 564 l 225 599 q 225 618 238 629 q 251 641 272 641 z"},"y":{"x_min":0,"x_max":618,"ha":618,"o":"m 186 384 l 186 329 l 296 78 l 322 78 l 432 329 l 432 384 q 432 404 444 417 q 456 430 474 430 q 493 430 504 417 q 516 405 516 384 l 516 322 q 516 316 515 311 q 514 306 510 297 l 295 -197 q 291 -206 279 -212 q 267 -218 253 -218 l 148 -218 q 127 -218 115 -206 q 102 -195 102 -176 q 102 -158 115 -146 q 127 -134 148 -134 l 231 -134 l 286 -7 l 272 -7 q 257 -7 246 -1 q 235 4 231 14 l 108 297 q 104 304 103 310 q 102 315 102 322 l 102 384 q 102 405 114 418 q 125 430 144 430 q 163 430 174 417 q 186 404 186 384 z"},"@":{"x_min":0,"x_max":618,"ha":618,"o":"m 102 83 l 102 234 q 102 286 139 322 q 176 359 227 359 l 309 359 q 327 359 339 346 q 351 333 351 312 l 351 83 q 351 65 363 53 q 374 42 391 42 q 408 42 420 54 q 432 66 432 83 l 432 459 q 432 485 414 504 q 395 522 369 522 l 244 522 q 226 522 212 514 q 199 506 189 489 q 188 487 187 484 q 169 452 144 452 q 127 452 115 464 q 102 477 102 493 q 102 531 146 568 q 189 606 244 606 l 368 606 q 429 606 473 563 q 516 520 516 459 l 516 83 q 516 32 479 -5 q 442 -42 391 -42 q 370 -42 349 -34 q 329 -27 307 -10 q 287 -27 268 -35 q 250 -42 227 -42 q 176 -42 139 -5 q 102 31 102 83 z m 267 83 l 267 275 l 227 275 q 210 275 198 263 q 186 250 186 234 l 186 83 q 186 66 198 54 q 210 42 227 42 q 244 42 255 54 q 267 66 267 83 z"},".":{"x_min":0,"x_max":618,"ha":618,"o":"m 268 218 l 350 218 q 369 218 380 205 q 392 192 392 172 l 392 110 q 392 88 381 76 q 369 63 350 63 l 268 63 q 250 63 238 76 q 226 89 226 110 l 226 172 q 226 193 238 206 q 249 218 268 218 z"},"p":{"x_min":0,"x_max":618,"ha":618,"o":"m 300 363 q 292 363 285 360 q 278 357 272 351 l 197 277 q 191 271 189 264 q 186 257 186 248 l 186 141 q 186 132 189 125 q 191 118 197 112 l 272 38 q 278 32 285 29 q 293 25 300 25 l 319 25 q 326 25 334 28 q 343 32 349 37 l 419 96 q 424 100 427 109 q 431 117 431 125 l 431 264 q 431 272 427 281 q 424 290 419 294 l 349 353 q 343 358 336 360 q 328 363 319 363 z m 186 401 l 186 384 l 206 404 q 228 426 251 437 q 275 448 300 448 l 322 448 q 342 448 363 440 q 384 432 402 417 l 471 359 q 492 342 504 316 q 516 291 516 264 l 516 125 q 516 98 504 73 q 492 47 471 30 l 400 -29 q 384 -43 363 -51 q 341 -59 320 -59 l 301 -59 q 275 -59 252 -48 q 228 -37 206 -15 l 186 5 l 186 -171 q 186 -192 174 -205 q 163 -218 144 -218 q 125 -218 114 -205 q 102 -191 102 -171 l 102 401 q 102 422 114 435 q 125 448 144 448 q 162 448 174 435 q 186 421 186 401 z"},"X":{"x_min":0,"x_max":618,"ha":618,"o":"m 183 582 l 309 365 l 435 582 q 442 594 452 600 q 462 606 474 606 q 491 606 504 594 q 516 582 516 564 q 516 559 514 552 q 512 546 508 540 l 357 282 l 508 24 q 513 16 514 10 q 516 5 516 0 q 516 -18 503 -30 q 491 -43 474 -43 q 463 -43 453 -36 q 443 -30 436 -18 l 308 198 l 181 -18 q 173 -31 164 -37 q 154 -43 143 -43 q 126 -43 114 -31 q 102 -19 102 0 q 102 6 104 12 q 105 19 109 24 l 259 280 l 110 540 q 105 547 104 553 q 102 558 102 564 q 102 582 114 594 q 126 606 144 606 q 155 606 166 600 q 177 593 183 582 z"},"*":{"x_min":0,"x_max":618,"ha":618,"o":"m 351 489 l 351 373 l 443 452 q 451 459 458 462 q 465 465 474 465 q 491 465 503 453 q 515 440 515 424 q 515 414 511 405 q 506 396 498 389 l 374 282 l 498 176 q 506 169 511 160 q 515 151 515 141 q 515 125 503 112 q 492 99 477 99 q 467 99 458 102 q 450 105 443 112 l 351 190 l 351 75 q 351 54 339 41 q 328 28 309 28 q 291 28 279 41 q 267 54 267 75 l 267 190 l 175 112 q 166 104 159 102 q 152 99 142 99 q 126 99 115 111 q 103 124 103 141 q 103 151 107 160 q 111 169 120 176 l 243 282 l 120 389 q 111 396 106 405 q 102 414 102 423 q 102 440 114 453 q 126 465 143 465 q 152 465 160 462 q 168 458 175 452 l 267 372 l 267 489 q 267 510 279 523 q 290 536 309 536 q 327 536 339 523 q 351 510 351 489 z"},"Y":{"x_min":0,"x_max":618,"ha":618,"o":"m 186 559 l 186 507 l 309 353 l 432 507 l 432 559 q 432 580 444 593 q 456 606 474 606 q 493 606 504 593 q 516 580 516 559 l 516 478 l 351 270 l 351 5 q 351 -16 339 -29 q 328 -42 309 -42 q 291 -42 279 -29 q 267 -16 267 5 l 267 270 l 102 478 l 102 559 q 102 581 114 593 q 125 606 144 606 q 162 606 174 593 q 186 580 186 559 z"},"c":{"x_min":0,"x_max":618,"ha":618,"o":"m 302 430 l 469 430 q 490 430 503 418 q 516 406 516 388 q 516 369 504 358 q 491 347 469 347 l 302 347 q 294 347 288 344 q 281 341 273 334 l 198 269 q 193 265 189 257 q 186 249 186 241 l 186 148 q 186 140 189 132 q 193 124 198 119 l 273 54 q 282 47 289 44 q 295 42 302 42 l 469 42 q 490 42 503 30 q 516 19 516 0 q 516 -19 503 -30 q 490 -42 469 -42 l 302 -42 q 281 -42 259 -34 q 236 -26 221 -13 l 146 53 q 125 72 113 97 q 102 121 102 148 l 102 240 q 102 267 113 291 q 125 316 146 335 l 221 401 q 236 414 259 422 q 281 430 302 430 z"},"!":{"x_min":0,"x_max":618,"ha":618,"o":"m 289 77 l 329 77 q 348 77 360 64 q 372 51 372 31 l 372 5 q 372 -16 360 -29 q 348 -42 329 -42 l 289 -42 q 271 -42 259 -29 q 247 -16 247 5 l 247 31 q 247 52 259 65 q 270 77 289 77 z m 286 606 l 332 606 q 349 606 360 593 q 372 581 372 562 l 372 558 l 352 251 q 350 229 339 217 q 328 205 310 205 q 292 205 280 217 q 269 229 267 250 l 247 558 l 247 562 q 247 582 258 594 q 269 606 286 606 z"},"/":{"x_min":0,"x_max":618,"ha":618,"o":"m 508 540 l 183 -17 q 175 -29 166 -35 q 156 -41 144 -41 q 126 -41 114 -30 q 102 -18 102 0 q 102 6 104 12 q 106 19 110 25 l 435 582 q 442 594 452 600 q 462 606 474 606 q 491 606 504 594 q 516 582 516 564 q 516 559 514 552 q 512 546 508 540 z"},"[":{"x_min":0,"x_max":618,"ha":618,"o":"m 186 522 l 186 42 l 226 42 l 226 522 z m 149 606 l 469 606 q 490 606 503 594 q 516 583 516 564 q 516 546 503 534 q 490 522 469 522 l 310 522 l 310 42 l 469 42 q 490 42 503 30 q 516 19 516 0 q 516 -19 503 -30 q 490 -42 469 -42 l 149 -42 q 127 -42 115 -31 q 102 -19 102 0 l 102 564 q 102 583 115 594 q 128 606 149 606 z"},"6":{"x_min":0,"x_max":618,"ha":618,"o":"m 186 169 l 186 42 l 432 42 l 432 169 z m 144 606 l 181 606 q 202 606 215 594 q 228 583 228 564 q 228 547 217 536 q 205 524 186 522 l 186 253 l 423 253 q 468 253 492 229 q 516 205 516 160 l 516 51 q 516 6 492 -18 q 468 -42 423 -42 l 195 -42 q 150 -42 126 -18 q 102 6 102 51 l 102 559 q 102 581 114 593 q 125 606 144 606 z"},"r":{"x_min":0,"x_max":618,"ha":618,"o":"m 186 384 l 186 340 l 256 401 q 271 415 293 422 q 315 430 336 430 l 391 430 q 442 430 479 394 q 516 357 516 306 l 516 287 q 516 266 504 253 q 493 240 474 240 q 456 240 444 253 q 432 267 432 287 l 432 306 q 432 322 420 335 q 408 347 391 347 l 336 347 q 329 347 320 344 q 311 340 306 335 l 186 229 l 186 5 q 186 -16 174 -29 q 163 -42 144 -42 q 125 -42 114 -29 q 102 -16 102 5 l 102 384 q 102 405 114 418 q 125 430 144 430 q 163 430 174 417 q 186 404 186 384 z"},"2":{"x_min":0,"x_max":618,"ha":618,"o":"m 149 606 l 432 606 q 467 606 491 582 q 516 557 516 522 l 516 324 q 516 289 491 265 q 467 240 432 240 l 186 240 l 186 42 l 469 42 q 490 42 503 30 q 516 19 516 0 q 516 -19 503 -30 q 490 -42 469 -42 l 102 -42 l 102 240 q 102 275 126 300 q 151 324 186 324 l 432 324 l 432 522 l 149 522 q 127 522 115 533 q 102 545 102 564 q 102 583 115 594 q 128 606 149 606 z"},"{":{"x_min":0,"x_max":618,"ha":618,"o":"m 351 366 q 351 344 343 323 q 335 303 319 282 q 335 260 343 240 q 351 219 351 197 l 351 42 l 469 42 q 490 42 503 30 q 516 19 516 0 q 516 -19 503 -30 q 490 -42 469 -42 l 351 -42 q 317 -42 292 -17 q 267 8 267 42 l 267 198 q 267 215 255 228 q 243 240 225 240 l 149 240 q 127 240 115 252 q 102 263 102 282 q 102 300 115 312 q 128 324 149 324 l 225 324 q 242 324 255 337 q 267 349 267 366 l 267 522 q 267 556 292 581 q 317 606 351 606 l 469 606 q 490 606 503 594 q 516 583 516 564 q 516 546 503 534 q 490 522 469 522 l 351 522 z"},"9":{"x_min":0,"x_max":618,"ha":618,"o":"m 186 522 l 186 395 l 432 395 l 432 522 z m 195 606 l 423 606 q 468 606 492 582 q 516 557 516 512 l 516 4 q 516 -17 504 -30 q 493 -42 474 -42 l 437 -42 q 416 -42 403 -30 q 390 -19 390 0 q 390 17 401 28 q 413 40 432 42 l 432 310 l 195 310 q 150 310 126 334 q 102 359 102 404 l 102 512 q 102 557 126 582 q 150 606 195 606 z"}," ":{"x_min":0,"x_max":309,"ha":309,"o":""},"I":{"x_min":0,"x_max":618,"ha":618,"o":"m 469 606 q 490 606 503 594 q 516 583 516 564 q 516 546 503 534 q 490 522 469 522 l 351 522 l 351 42 l 469 42 q 490 42 503 30 q 516 19 516 0 q 516 -19 503 -30 q 490 -42 469 -42 l 149 -42 q 128 -42 115 -30 q 102 -19 102 0 q 102 19 115 30 q 128 42 149 42 l 267 42 l 267 522 l 149 522 q 128 522 115 534 q 102 545 102 564 q 102 583 115 594 q 128 606 149 606 z"},"H":{"x_min":0,"x_max":618,"ha":618,"o":"m 186 559 l 186 324 l 432 324 l 432 559 q 432 581 444 593 q 455 606 474 606 q 492 606 504 593 q 516 580 516 559 l 516 5 q 516 -16 504 -29 q 493 -42 474 -42 q 456 -42 444 -29 q 432 -16 432 5 l 432 240 l 186 240 l 186 5 q 186 -16 174 -29 q 163 -42 144 -42 q 125 -42 114 -29 q 102 -16 102 5 l 102 559 q 102 581 114 593 q 125 606 144 606 q 162 606 174 593 q 186 580 186 559 z"},"4":{"x_min":0,"x_max":618,"ha":618,"o":"m 207 559 l 207 253 l 370 253 l 370 489 q 370 510 382 523 q 393 536 412 536 q 430 536 442 523 q 454 510 454 489 l 454 253 q 472 251 484 240 q 496 228 496 211 q 496 194 485 183 q 473 171 454 169 l 454 5 q 454 -16 442 -29 q 431 -42 412 -42 q 394 -42 382 -29 q 370 -16 370 5 l 370 169 l 123 169 l 123 559 q 123 581 135 593 q 146 606 165 606 q 183 606 195 593 q 207 580 207 559 z"},"D":{"x_min":0,"x_max":618,"ha":618,"o":"m 297 522 l 269 522 l 269 42 l 297 42 q 310 42 320 49 q 331 56 337 68 l 423 242 q 427 251 429 261 q 431 271 431 282 q 431 293 429 303 q 427 313 423 322 l 337 495 q 331 507 320 515 q 309 522 297 522 z m 297 606 q 336 606 365 587 q 393 568 414 527 l 501 354 q 508 339 512 321 q 516 303 516 282 q 516 261 512 243 q 508 225 501 210 l 414 37 q 394 -3 365 -23 q 337 -42 297 -42 l 149 -42 q 128 -42 115 -30 q 102 -19 102 0 q 102 19 115 30 q 128 42 149 42 l 185 42 l 185 522 l 149 522 q 128 522 115 534 q 102 545 102 564 q 102 583 115 594 q 128 606 149 606 z"},"^":{"x_min":0,"x_max":618,"ha":618,"o":"m 509 129 q 513 122 514 115 q 516 109 516 104 q 516 88 504 76 q 491 64 474 64 q 462 64 452 70 q 442 77 433 91 l 309 281 l 185 91 q 175 77 166 70 q 156 64 144 64 q 126 64 115 76 q 103 87 103 104 q 103 111 104 117 q 106 123 109 129 l 263 429 q 273 448 284 456 q 295 465 309 465 q 323 465 334 456 q 345 448 355 429 z"},"0":{"x_min":0,"x_max":618,"ha":618,"o":"m 186 522 l 186 42 l 432 42 l 432 522 z m 195 606 l 423 606 q 468 606 492 582 q 516 558 516 513 l 516 51 q 516 6 492 -18 q 468 -42 423 -42 l 195 -42 q 150 -42 126 -18 q 102 6 102 51 l 102 513 q 102 558 126 582 q 150 606 195 606 z"},"F":{"x_min":0,"x_max":618,"ha":618,"o":"m 102 606 l 469 606 q 490 606 503 594 q 516 583 516 564 q 516 546 503 534 q 490 522 469 522 l 186 522 l 186 394 l 387 394 q 408 394 420 382 q 433 371 433 352 q 433 333 420 322 q 407 310 387 310 l 186 310 l 186 5 q 186 -16 174 -29 q 163 -42 144 -42 q 125 -42 114 -29 q 102 -16 102 5 z"},"k":{"x_min":0,"x_max":618,"ha":618,"o":"m 186 559 l 186 231 l 403 418 q 412 425 419 428 q 426 431 434 431 q 451 431 463 419 q 475 407 475 390 q 475 381 471 372 q 466 363 458 355 l 292 211 l 498 35 q 507 27 512 19 q 516 11 516 1 q 516 -17 504 -29 q 493 -41 476 -41 q 467 -41 459 -38 q 451 -35 443 -29 l 227 156 l 186 121 l 186 5 q 186 -16 174 -29 q 163 -42 144 -42 q 125 -42 114 -29 q 102 -16 102 5 l 102 559 q 102 581 114 593 q 125 606 144 606 q 162 606 174 593 q 186 580 186 559 z"},"u":{"x_min":0,"x_max":618,"ha":618,"o":"m 186 383 l 196 111 q 198 75 211 59 q 224 42 249 42 l 276 42 q 297 42 330 62 q 333 65 335 66 l 432 129 l 432 383 q 432 404 444 417 q 455 430 474 430 q 492 430 504 417 q 516 404 516 383 l 516 5 q 516 -16 504 -29 q 493 -42 474 -42 q 456 -42 444 -29 q 432 -16 432 5 l 432 31 l 383 -3 l 382 -3 q 328 -42 279 -42 l 241 -42 q 177 -42 145 -3 q 113 35 111 115 l 102 383 l 102 385 q 102 404 114 417 q 126 430 144 430 q 163 430 174 417 q 185 405 186 383 z"},"]":{"x_min":0,"x_max":618,"ha":618,"o":"m 392 522 l 392 42 l 432 42 l 432 522 z m 149 606 l 469 606 q 490 606 503 594 q 516 583 516 564 l 516 0 q 516 -19 503 -30 q 490 -42 469 -42 l 149 -42 q 128 -42 115 -30 q 102 -19 102 0 q 102 19 115 30 q 128 42 149 42 l 308 42 l 308 522 l 149 522 q 127 522 115 533 q 102 545 102 564 q 102 583 115 594 q 128 606 149 606 z"},"U":{"x_min":0,"x_max":618,"ha":618,"o":"m 186 559 l 186 84 q 186 66 198 54 q 211 42 228 42 l 389 42 q 406 42 419 55 q 432 67 432 84 l 432 559 q 432 581 444 593 q 455 606 474 606 q 492 606 504 593 q 516 580 516 559 l 516 84 q 516 32 479 -5 q 442 -42 390 -42 l 229 -42 q 176 -42 139 -5 q 102 32 102 84 l 102 559 q 102 581 114 593 q 125 606 144 606 q 162 606 174 593 q 186 580 186 559 z"},"o":{"x_min":0,"x_max":618,"ha":618,"o":"m 263 347 q 257 347 250 344 q 244 342 237 337 l 201 307 q 194 302 190 293 q 186 285 186 276 l 186 112 q 186 103 190 95 q 194 86 201 81 l 237 51 q 243 46 250 44 q 256 42 263 42 l 355 42 q 362 42 369 44 q 375 47 381 51 l 417 81 q 423 86 428 95 q 432 104 432 112 l 432 276 q 432 285 428 293 q 424 302 417 307 l 381 337 q 375 342 368 344 q 361 347 355 347 z m 262 430 l 355 430 q 376 430 397 423 q 417 415 435 401 l 471 372 q 492 355 504 329 q 516 303 516 276 l 516 112 q 516 85 504 60 q 492 34 471 17 l 435 -13 q 417 -27 397 -34 q 376 -42 355 -42 l 262 -42 q 241 -42 221 -35 q 201 -27 183 -13 l 147 17 q 126 34 114 60 q 102 85 102 112 l 102 276 q 102 303 114 329 q 126 355 147 372 l 183 401 q 201 416 221 423 q 241 430 262 430 z"},"N":{"x_min":0,"x_max":618,"ha":618,"o":"m 102 606 l 213 606 l 432 107 l 432 559 q 432 581 444 593 q 455 606 474 606 q 492 606 504 593 q 516 580 516 559 l 516 -42 l 405 -42 l 186 455 l 186 5 q 186 -16 174 -29 q 163 -42 144 -42 q 125 -42 114 -29 q 102 -16 102 5 z"},"+":{"x_min":0,"x_max":618,"ha":618,"o":"m 267 122 l 267 240 l 149 240 q 127 240 115 252 q 102 263 102 282 q 102 300 115 312 q 128 324 149 324 l 267 324 l 267 442 q 267 463 279 476 q 290 489 309 489 q 327 489 339 476 q 351 462 351 442 l 351 324 l 469 324 q 490 324 503 312 q 516 301 516 282 q 516 264 503 252 q 490 240 469 240 l 351 240 l 351 122 q 351 101 339 88 q 328 75 309 75 q 291 75 279 88 q 267 102 267 122 z"},"G":{"x_min":0,"x_max":618,"ha":618,"o":"m 348 606 l 469 606 q 490 606 503 594 q 516 583 516 564 q 516 546 503 534 q 490 522 469 522 l 349 522 q 341 522 332 518 q 322 514 319 509 l 211 369 q 196 350 191 337 q 186 324 186 309 l 186 84 q 186 67 199 54 q 211 42 228 42 l 389 42 q 406 42 418 54 q 431 67 431 84 l 431 169 l 355 169 q 333 169 321 180 q 308 192 308 211 q 308 229 321 241 q 334 253 355 253 l 516 253 l 516 84 q 516 32 479 -5 q 442 -42 390 -42 l 229 -42 q 176 -42 139 -5 q 102 32 102 84 l 102 309 q 102 338 112 364 q 122 390 150 428 l 247 557 q 263 578 292 592 q 320 606 348 606 z"},"q":{"x_min":0,"x_max":618,"ha":618,"o":"m 255 346 q 248 346 242 344 q 235 341 226 334 l 198 312 q 193 308 189 300 q 186 292 186 283 l 186 104 q 186 96 189 88 q 193 80 198 76 l 226 54 q 227 53 229 52 q 242 42 255 42 l 320 42 q 328 42 335 45 q 342 48 349 54 l 420 111 q 425 115 428 123 q 431 131 431 140 l 431 247 q 431 256 428 264 q 425 272 420 276 l 349 334 q 342 340 334 343 q 327 346 320 346 z m 255 430 l 320 430 q 342 430 363 422 q 384 415 400 401 l 431 374 l 431 384 q 431 405 443 418 q 454 430 473 430 q 492 430 504 417 q 516 404 516 384 l 516 -171 q 516 -192 504 -205 q 492 -218 473 -218 q 455 -218 443 -205 q 431 -191 431 -171 l 431 14 l 400 -13 q 384 -27 363 -34 q 342 -42 320 -42 l 255 -42 q 233 -42 213 -35 q 193 -28 175 -13 l 146 9 q 126 24 114 50 q 101 76 101 101 l 101 284 q 101 311 114 337 q 126 363 146 379 l 175 401 q 193 416 213 423 q 233 430 255 430 z"},"d":{"x_min":0,"x_max":618,"ha":618,"o":"m 255 346 q 242 346 228 335 q 227 334 226 334 l 198 312 q 193 308 189 300 q 186 292 186 284 l 186 105 q 186 97 189 88 q 193 80 198 76 l 226 54 q 227 54 227 53 q 242 42 255 42 l 320 42 q 327 42 334 45 q 341 48 349 54 l 420 112 q 425 116 428 124 q 431 132 431 141 l 431 248 q 431 257 428 265 q 425 273 420 277 l 349 334 q 342 340 335 343 q 328 346 320 346 z m 516 559 l 516 5 q 516 -16 504 -29 q 492 -42 473 -42 q 454 -42 443 -29 q 431 -17 431 5 l 431 14 l 400 -13 q 384 -27 363 -34 q 342 -42 320 -42 l 255 -42 q 233 -42 213 -35 q 193 -27 175 -13 l 146 9 q 125 25 113 51 q 101 77 101 105 l 101 287 q 101 312 114 338 q 127 364 146 379 l 175 401 q 193 416 213 423 q 233 430 255 430 l 320 430 q 342 430 363 422 q 384 415 400 401 l 431 374 l 431 559 q 431 580 443 593 q 455 606 473 606 q 492 606 504 593 q 516 580 516 559 z"},"1":{"x_min":0,"x_max":618,"ha":618,"o":"m 149 606 l 351 606 l 351 42 l 432 42 l 432 207 q 432 229 444 241 q 455 253 474 253 q 493 253 504 240 q 516 228 516 207 l 516 0 q 516 -19 503 -30 q 490 -42 469 -42 l 149 -42 q 128 -42 115 -30 q 102 -19 102 0 q 102 19 115 30 q 128 42 149 42 l 267 42 l 267 522 l 149 522 q 127 522 115 533 q 102 545 102 564 q 102 583 115 594 q 128 606 149 606 z"},"5":{"x_min":0,"x_max":618,"ha":618,"o":"m 185 606 l 469 606 q 490 606 503 594 q 516 583 516 564 q 516 546 503 534 q 490 522 469 522 l 269 522 l 269 324 l 432 324 q 466 324 491 299 q 516 274 516 240 l 516 42 q 516 7 491 -17 q 467 -42 432 -42 l 246 -42 q 235 -42 222 -39 q 210 -37 198 -32 l 132 -5 q 118 1 110 11 q 102 22 102 36 q 102 53 114 65 q 126 77 144 77 q 148 77 154 76 q 159 75 165 72 l 230 46 q 235 43 238 43 q 242 42 245 42 l 432 42 l 432 240 l 185 240 z"}}}
